<svg xmlns="http://www.w3.org/2000/svg" xmlns:xlink="http://www.w3.org/1999/xlink" width="500" zoomAndPan="magnify" viewBox="0 0 375 374.999991" height="500" preserveAspectRatio="xMidYMid meet" version="1.0"><defs><g/><clipPath id="8525a87a36"><path d="M 55.601562 0 L 319.601562 0 L 319.601562 330 L 55.601562 330 Z M 55.601562 0 " clip-rule="nonzero"/></clipPath></defs><g clip-path="url(#8525a87a36)"><path fill="#ff914d" d="M 66.597656 21.980469 C 66.597656 15.929688 71.535156 10.992188 77.585938 10.992188 L 269.929688 10.992188 L 269.929688 27.476562 C 269.929688 39.605469 279.785156 49.460938 291.914062 49.460938 L 308.398438 49.460938 L 308.398438 307.75 C 308.398438 313.800781 303.460938 318.738281 297.40625 318.738281 L 77.585938 318.738281 C 71.535156 318.738281 66.597656 313.800781 66.597656 307.75 Z M 300.628906 38.46875 L 291.914062 38.46875 C 285.859375 38.46875 280.921875 33.53125 280.921875 27.476562 L 280.921875 18.761719 Z M 77.585938 329.730469 L 297.40625 329.730469 C 309.535156 329.730469 319.390625 319.878906 319.390625 307.75 L 319.390625 48.515625 C 319.390625 46.195312 318.894531 43.984375 317.996094 41.925781 C 317.929688 41.796875 317.867188 41.710938 317.824219 41.601562 C 317.007812 39.863281 315.957031 38.253906 314.558594 36.859375 L 282.53125 4.828125 C 281.136719 3.433594 279.503906 2.363281 277.765625 1.546875 C 277.660156 1.503906 277.59375 1.4375 277.488281 1.417969 C 275.425781 0.492188 273.195312 0 270.875 0 L 77.585938 0 C 65.460938 0 55.605469 9.851562 55.605469 21.980469 L 55.605469 307.75 C 55.605469 319.878906 65.460938 329.730469 77.585938 329.730469 " fill-opacity="1" fill-rule="nonzero"/></g><path fill="#ff914d" d="M 99.570312 76.9375 C 99.570312 73.910156 102.039062 71.441406 105.066406 71.441406 L 138.039062 71.441406 C 140.398438 71.441406 142.375 72.945312 143.148438 75.046875 L 127.046875 91.148438 L 119.941406 84.042969 C 117.796875 81.894531 114.316406 81.894531 112.171875 84.042969 C 110.023438 86.1875 110.023438 89.667969 112.171875 91.8125 L 123.160156 102.804688 C 124.234375 103.878906 125.628906 104.414062 127.046875 104.414062 C 128.464844 104.414062 129.859375 103.878906 130.933594 102.804688 L 143.535156 90.203125 L 143.535156 109.910156 C 143.535156 112.9375 141.066406 115.40625 138.039062 115.40625 L 105.066406 115.40625 C 102.039062 115.40625 99.570312 112.9375 99.570312 109.910156 Z M 105.066406 126.398438 L 138.039062 126.398438 C 147.140625 126.398438 154.523438 119.011719 154.523438 109.910156 L 154.523438 79.210938 L 169.402344 64.335938 C 171.546875 62.1875 171.546875 58.710938 169.402344 56.566406 C 167.253906 54.417969 163.777344 54.417969 161.628906 56.566406 L 151.15625 67.039062 C 148.128906 63.070312 143.40625 60.449219 138.039062 60.449219 L 105.066406 60.449219 C 95.964844 60.449219 88.578125 67.835938 88.578125 76.9375 L 88.578125 109.910156 C 88.578125 119.011719 95.964844 126.398438 105.066406 126.398438 " fill-opacity="1" fill-rule="nonzero"/><path fill="#ff914d" d="M 99.570312 153.875 C 99.570312 150.847656 102.039062 148.378906 105.066406 148.378906 L 138.039062 148.378906 C 141.066406 148.378906 143.535156 150.847656 143.535156 153.875 L 143.535156 186.847656 C 143.535156 189.875 141.066406 192.34375 138.039062 192.34375 L 105.066406 192.34375 C 102.039062 192.34375 99.570312 189.875 99.570312 186.847656 Z M 105.066406 203.332031 L 138.039062 203.332031 C 147.140625 203.332031 154.523438 195.949219 154.523438 186.847656 L 154.523438 153.875 C 154.523438 144.773438 147.140625 137.386719 138.039062 137.386719 L 105.066406 137.386719 C 95.964844 137.386719 88.578125 144.773438 88.578125 153.875 L 88.578125 186.847656 C 88.578125 195.949219 95.964844 203.332031 105.066406 203.332031 " fill-opacity="1" fill-rule="nonzero"/><path fill="#ff914d" d="M 99.570312 230.8125 C 99.570312 227.785156 102.039062 225.316406 105.066406 225.316406 L 138.039062 225.316406 C 141.066406 225.316406 143.535156 227.785156 143.535156 230.8125 L 143.535156 263.785156 C 143.535156 266.8125 141.066406 269.28125 138.039062 269.28125 L 105.066406 269.28125 C 102.039062 269.28125 99.570312 266.8125 99.570312 263.785156 Z M 105.066406 280.269531 L 138.039062 280.269531 C 147.140625 280.269531 154.523438 272.886719 154.523438 263.785156 L 154.523438 230.8125 C 154.523438 221.710938 147.140625 214.324219 138.039062 214.324219 L 105.066406 214.324219 C 95.964844 214.324219 88.578125 221.710938 88.578125 230.8125 L 88.578125 263.785156 C 88.578125 272.886719 95.964844 280.269531 105.066406 280.269531 " fill-opacity="1" fill-rule="nonzero"/><path fill="#ff914d" d="M 187.496094 82.433594 L 280.921875 82.433594 C 283.949219 82.433594 286.417969 79.964844 286.417969 76.9375 C 286.417969 73.910156 283.949219 71.441406 280.921875 71.441406 L 187.496094 71.441406 C 184.472656 71.441406 182.003906 73.910156 182.003906 76.9375 C 182.003906 79.964844 184.472656 82.433594 187.496094 82.433594 " fill-opacity="1" fill-rule="nonzero"/><path fill="#ff914d" d="M 187.496094 109.910156 L 242.453125 109.910156 C 245.480469 109.910156 247.949219 107.441406 247.949219 104.414062 C 247.949219 101.386719 245.480469 98.917969 242.453125 98.917969 L 187.496094 98.917969 C 184.472656 98.917969 182.003906 101.386719 182.003906 104.414062 C 182.003906 107.441406 184.472656 109.910156 187.496094 109.910156 " fill-opacity="1" fill-rule="nonzero"/><path fill="#ff914d" d="M 187.496094 159.371094 L 280.921875 159.371094 C 283.949219 159.371094 286.417969 156.902344 286.417969 153.875 C 286.417969 150.847656 283.949219 148.378906 280.921875 148.378906 L 187.496094 148.378906 C 184.472656 148.378906 182.003906 150.847656 182.003906 153.875 C 182.003906 156.902344 184.472656 159.371094 187.496094 159.371094 " fill-opacity="1" fill-rule="nonzero"/><path fill="#ff914d" d="M 187.496094 186.847656 L 242.453125 186.847656 C 245.480469 186.847656 247.949219 184.378906 247.949219 181.351562 C 247.949219 178.324219 245.480469 175.855469 242.453125 175.855469 L 187.496094 175.855469 C 184.472656 175.855469 182.003906 178.324219 182.003906 181.351562 C 182.003906 184.378906 184.472656 186.847656 187.496094 186.847656 " fill-opacity="1" fill-rule="nonzero"/><path fill="#ff914d" d="M 187.496094 236.308594 L 280.921875 236.308594 C 283.949219 236.308594 286.417969 233.839844 286.417969 230.8125 C 286.417969 227.785156 283.949219 225.316406 280.921875 225.316406 L 187.496094 225.316406 C 184.472656 225.316406 182.003906 227.785156 182.003906 230.8125 C 182.003906 233.839844 184.472656 236.308594 187.496094 236.308594 " fill-opacity="1" fill-rule="nonzero"/><path fill="#ff914d" d="M 187.496094 263.785156 L 242.453125 263.785156 C 245.480469 263.785156 247.949219 261.316406 247.949219 258.289062 C 247.949219 255.261719 245.480469 252.792969 242.453125 252.792969 L 187.496094 252.792969 C 184.472656 252.792969 182.003906 255.261719 182.003906 258.289062 C 182.003906 261.316406 184.472656 263.785156 187.496094 263.785156 " fill-opacity="1" fill-rule="nonzero"/><g fill="#000000" fill-opacity="1"><g transform="translate(118.877517, 353.69277)"><g><path d="M 10.8125 -10.703125 L 6.875 -10.703125 L 6.875 0 L 4.234375 0 L 4.234375 -10.703125 L 0.359375 -10.703125 L 0.359375 -12.84375 L 10.8125 -12.84375 Z M 10.8125 -10.703125 "/></g></g></g><g fill="#000000" fill-opacity="1"><g transform="translate(130.049513, 353.69277)"><g><path d="M 8.390625 -2.640625 L 3.75 -2.640625 L 2.875 0 L 0.0625 0 L 4.84375 -12.84375 L 7.296875 -12.84375 L 12.09375 0 L 9.28125 0 Z M 4.46875 -4.78125 L 7.6875 -4.78125 L 6.0625 -9.59375 Z M 4.46875 -4.78125 "/></g></g></g><g fill="#000000" fill-opacity="1"><g transform="translate(142.200265, 353.69277)"><g><path d="M 7.8125 -3.375 C 7.8125 -3.875 7.632812 -4.253906 7.28125 -4.515625 C 6.925781 -4.785156 6.289062 -5.066406 5.375 -5.359375 C 4.457031 -5.660156 3.726562 -5.957031 3.1875 -6.25 C 1.726562 -7.03125 1 -8.085938 1 -9.421875 C 1 -10.117188 1.191406 -10.738281 1.578125 -11.28125 C 1.972656 -11.820312 2.535156 -12.242188 3.265625 -12.546875 C 4.003906 -12.859375 4.828125 -13.015625 5.734375 -13.015625 C 6.660156 -13.015625 7.476562 -12.847656 8.1875 -12.515625 C 8.90625 -12.179688 9.460938 -11.710938 9.859375 -11.109375 C 10.253906 -10.503906 10.453125 -9.816406 10.453125 -9.046875 L 7.8125 -9.046875 C 7.8125 -9.640625 7.625 -10.097656 7.25 -10.421875 C 6.882812 -10.742188 6.367188 -10.90625 5.703125 -10.90625 C 5.054688 -10.90625 4.550781 -10.769531 4.1875 -10.5 C 3.832031 -10.226562 3.65625 -9.867188 3.65625 -9.421875 C 3.65625 -9.003906 3.863281 -8.65625 4.28125 -8.375 C 4.695312 -8.09375 5.316406 -7.828125 6.140625 -7.578125 C 7.640625 -7.117188 8.734375 -6.554688 9.421875 -5.890625 C 10.109375 -5.222656 10.453125 -4.390625 10.453125 -3.390625 C 10.453125 -2.273438 10.03125 -1.398438 9.1875 -0.765625 C 8.351562 -0.140625 7.222656 0.171875 5.796875 0.171875 C 4.816406 0.171875 3.921875 -0.00390625 3.109375 -0.359375 C 2.296875 -0.722656 1.675781 -1.21875 1.25 -1.84375 C 0.820312 -2.476562 0.609375 -3.210938 0.609375 -4.046875 L 3.265625 -4.046875 C 3.265625 -2.617188 4.109375 -1.90625 5.796875 -1.90625 C 6.429688 -1.90625 6.925781 -2.035156 7.28125 -2.296875 C 7.632812 -2.554688 7.8125 -2.914062 7.8125 -3.375 Z M 7.8125 -3.375 "/></g></g></g><g fill="#000000" fill-opacity="1"><g transform="translate(153.30172, 353.69277)"><g><path d="M 5.171875 -5.15625 L 3.796875 -3.671875 L 3.796875 0 L 1.140625 0 L 1.140625 -12.84375 L 3.796875 -12.84375 L 3.796875 -7.015625 L 4.953125 -8.609375 L 8.234375 -12.84375 L 11.484375 -12.84375 L 6.921875 -7.140625 L 11.609375 0 L 8.46875 0 Z M 5.171875 -5.15625 "/></g></g></g><g fill="#000000" fill-opacity="1"><g transform="translate(164.764694, 353.69277)"><g/></g></g><g fill="#000000" fill-opacity="1"><g transform="translate(169.261707, 353.69277)"><g><path d="M 4.609375 -12.84375 L 7.90625 -3.53125 L 11.1875 -12.84375 L 14.65625 -12.84375 L 14.65625 0 L 12 0 L 12 -3.515625 L 12.265625 -9.5625 L 8.796875 0 L 6.984375 0 L 3.53125 -9.5625 L 3.796875 -3.515625 L 3.796875 0 L 1.140625 0 L 1.140625 -12.84375 Z M 4.609375 -12.84375 "/></g></g></g><g fill="#000000" fill-opacity="1"><g transform="translate(185.080611, 353.69277)"><g><path d="M 8.390625 -2.640625 L 3.75 -2.640625 L 2.875 0 L 0.0625 0 L 4.84375 -12.84375 L 7.296875 -12.84375 L 12.09375 0 L 9.28125 0 Z M 4.46875 -4.78125 L 7.6875 -4.78125 L 6.0625 -9.59375 Z M 4.46875 -4.78125 "/></g></g></g><g fill="#000000" fill-opacity="1"><g transform="translate(197.231363, 353.69277)"><g><path d="M 11.59375 0 L 8.9375 0 L 3.796875 -8.453125 L 3.796875 0 L 1.140625 0 L 1.140625 -12.84375 L 3.796875 -12.84375 L 8.953125 -4.375 L 8.953125 -12.84375 L 11.59375 -12.84375 Z M 11.59375 0 "/></g></g></g><g fill="#000000" fill-opacity="1"><g transform="translate(209.981717, 353.69277)"><g><path d="M 8.390625 -2.640625 L 3.75 -2.640625 L 2.875 0 L 0.0625 0 L 4.84375 -12.84375 L 7.296875 -12.84375 L 12.09375 0 L 9.28125 0 Z M 4.46875 -4.78125 L 7.6875 -4.78125 L 6.0625 -9.59375 Z M 4.46875 -4.78125 "/></g></g></g><g fill="#000000" fill-opacity="1"><g transform="translate(222.132469, 353.69277)"><g><path d="M 11.3125 -1.625 C 10.832031 -1.050781 10.15625 -0.609375 9.28125 -0.296875 C 8.414062 0.015625 7.453125 0.171875 6.390625 0.171875 C 5.285156 0.171875 4.3125 -0.0664062 3.46875 -0.546875 C 2.632812 -1.035156 1.988281 -1.738281 1.53125 -2.65625 C 1.070312 -3.582031 0.835938 -4.671875 0.828125 -5.921875 L 0.828125 -6.796875 C 0.828125 -8.078125 1.039062 -9.1875 1.46875 -10.125 C 1.90625 -11.0625 2.53125 -11.773438 3.34375 -12.265625 C 4.15625 -12.765625 5.109375 -13.015625 6.203125 -13.015625 C 7.734375 -13.015625 8.925781 -12.648438 9.78125 -11.921875 C 10.632812 -11.203125 11.144531 -10.148438 11.3125 -8.765625 L 8.734375 -8.765625 C 8.617188 -9.492188 8.359375 -10.03125 7.953125 -10.375 C 7.546875 -10.71875 6.988281 -10.890625 6.28125 -10.890625 C 5.382812 -10.890625 4.703125 -10.550781 4.234375 -9.875 C 3.765625 -9.195312 3.523438 -8.191406 3.515625 -6.859375 L 3.515625 -6.03125 C 3.515625 -4.6875 3.769531 -3.671875 4.28125 -2.984375 C 4.789062 -2.296875 5.539062 -1.953125 6.53125 -1.953125 C 7.53125 -1.953125 8.238281 -2.160156 8.65625 -2.578125 L 8.65625 -4.796875 L 6.25 -4.796875 L 6.25 -6.75 L 11.3125 -6.75 Z M 11.3125 -1.625 "/></g></g></g><g fill="#000000" fill-opacity="1"><g transform="translate(234.433127, 353.69277)"><g><path d="M 8.875 -5.5625 L 3.796875 -5.5625 L 3.796875 -2.125 L 9.75 -2.125 L 9.75 0 L 1.140625 0 L 1.140625 -12.84375 L 9.734375 -12.84375 L 9.734375 -10.703125 L 3.796875 -10.703125 L 3.796875 -7.640625 L 8.875 -7.640625 Z M 8.875 -5.5625 "/></g></g></g><g fill="#000000" fill-opacity="1"><g transform="translate(244.591086, 353.69277)"><g><path d="M 5.90625 -4.703125 L 3.796875 -4.703125 L 3.796875 0 L 1.140625 0 L 1.140625 -12.84375 L 5.921875 -12.84375 C 7.429688 -12.84375 8.597656 -12.503906 9.421875 -11.828125 C 10.242188 -11.148438 10.65625 -10.191406 10.65625 -8.953125 C 10.65625 -8.078125 10.46875 -7.347656 10.09375 -6.765625 C 9.71875 -6.179688 9.144531 -5.71875 8.375 -5.375 L 11.140625 -0.125 L 11.140625 0 L 8.3125 0 Z M 3.796875 -6.84375 L 5.921875 -6.84375 C 6.585938 -6.84375 7.101562 -7.007812 7.46875 -7.34375 C 7.832031 -7.6875 8.015625 -8.15625 8.015625 -8.75 C 8.015625 -9.351562 7.84375 -9.828125 7.5 -10.171875 C 7.15625 -10.523438 6.628906 -10.703125 5.921875 -10.703125 L 3.796875 -10.703125 Z M 3.796875 -6.84375 "/></g></g></g></svg>